<svg width="33" height="33" viewBox="0 0 33 33" fill="none" xmlns="http://www.w3.org/2000/svg">
    <g filter="url(#filter0_d)">
        <path d="M15.0724 2.05558C15.5194 0.669454 17.4806 0.669456 17.9276 2.05558L19.4848 6.88419C19.8185 7.91881 20.7825 8.61922 21.8696 8.61685L26.9431 8.60576C28.3996 8.60257 29.0056 10.4677 27.8254 11.3212L23.7144 14.2944C22.8335 14.9314 22.4653 16.0647 22.8035 17.0978L24.3818 21.9196C24.8349 23.3038 23.2483 24.4565 22.0719 23.5979L17.9739 20.6067C17.0958 19.9658 15.9042 19.9658 15.0261 20.6067L10.9281 23.5978C9.75169 24.4565 8.1651 23.3038 8.61819 21.9196L10.1965 17.0979C10.5347 16.0647 10.1665 14.9314 9.28563 14.2944L5.17456 11.3212C3.99442 10.4677 4.60044 8.60257 6.05686 8.60576L11.1304 8.61685C12.2175 8.61922 13.1815 7.91881 13.5152 6.8842L15.0724 2.05558Z" stroke="#575757" />
    </g>
    <defs>
        <filter id="filter0_d" x="0.0497131" y="0.515991" width="32.9006" height="31.8794" filterUnits="userSpaceOnUse" color-interpolation-filters="sRGB">
            <feFlood flood-opacity="0" result="BackgroundImageFix" />
            <feColorMatrix in="SourceAlpha" type="matrix" values="0 0 0 0 0 0 0 0 0 0 0 0 0 0 0 0 0 0 127 0" />
            <feOffset dy="4" />
            <feGaussianBlur stdDeviation="2" />
            <feColorMatrix type="matrix" values="0 0 0 0 0 0 0 0 0 0 0 0 0 0 0 0 0 0 0.25 0" />
            <feBlend mode="normal" in2="BackgroundImageFix" result="effect1_dropShadow" />
            <feBlend mode="normal" in="SourceGraphic" in2="effect1_dropShadow" result="shape" />
        </filter>
    </defs>
</svg>
