<svg width="33" height="33" viewBox="0 0 33 33" fill="none" xmlns="http://www.w3.org/2000/svg">
    <g filter="url(#filter0_d)">
        <path d="M14.5965 1.90211C15.1926 0.0539451 17.8074 0.0539436 18.4035 1.90211L19.9607 6.73073C20.2276 7.55842 20.9989 8.11875 21.8685 8.11685L26.942 8.10576C28.8839 8.10151 29.692 10.5884 28.1185 11.7264L24.0074 14.6995C23.3027 15.2092 23.0081 16.1158 23.2787 16.9423L24.857 21.7641C25.4611 23.6096 23.3457 25.1466 21.7771 24.0017L17.6791 21.0106C16.9766 20.4979 16.0234 20.4979 15.3209 21.0106L11.2229 24.0017C9.65433 25.1466 7.53888 23.6096 8.143 21.7641L9.72134 16.9423C9.9919 16.1158 9.69732 15.2092 8.99262 14.6995L4.88155 11.7264C3.30803 10.5884 4.11605 8.10151 6.05795 8.10576L11.1315 8.11685C12.0011 8.11875 12.7724 7.55842 13.0393 6.73073L14.5965 1.90211Z" fill="#E3F238" />
        <path d="M15.0724 2.05558C15.5194 0.669454 17.4806 0.669456 17.9276 2.05558L19.4848 6.88419C19.8185 7.91881 20.7825 8.61922 21.8696 8.61685L26.9431 8.60576C28.3996 8.60257 29.0056 10.4677 27.8254 11.3212L23.7144 14.2944C22.8335 14.9314 22.4653 16.0647 22.8035 17.0978L24.3818 21.9196C24.8349 23.3038 23.2483 24.4565 22.0719 23.5979L17.9739 20.6067C17.0958 19.9658 15.9042 19.9658 15.0261 20.6067L10.9281 23.5978C9.75169 24.4565 8.1651 23.3038 8.61819 21.9196L10.1965 17.0979C10.5347 16.0647 10.1665 14.9314 9.28563 14.2944L5.17456 11.3212C3.99442 10.4677 4.60044 8.60257 6.05686 8.60576L11.1304 8.61685C12.2175 8.61922 13.1815 7.91881 13.5152 6.8842L15.0724 2.05558Z" stroke="#575757" />
    </g>
    <defs>
        <filter id="filter0_d" x="0.0497131" y="0.515869" width="32.9006" height="31.8794" filterUnits="userSpaceOnUse" color-interpolation-filters="sRGB">
            <feFlood flood-opacity="0" result="BackgroundImageFix" />
            <feColorMatrix in="SourceAlpha" type="matrix" values="0 0 0 0 0 0 0 0 0 0 0 0 0 0 0 0 0 0 127 0" />
            <feOffset dy="4" />
            <feGaussianBlur stdDeviation="2" />
            <feColorMatrix type="matrix" values="0 0 0 0 0 0 0 0 0 0 0 0 0 0 0 0 0 0 0.25 0" />
            <feBlend mode="normal" in2="BackgroundImageFix" result="effect1_dropShadow" />
            <feBlend mode="normal" in="SourceGraphic" in2="effect1_dropShadow" result="shape" />
        </filter>
    </defs>
</svg>    