<svg width="97" height="37" viewBox="0 0 97 37" fill="none" xmlns="http://www.w3.org/2000/svg">
    <g filter="url(#filter0_d)">
        <path d="M15.5965 5.90211C16.1926 4.05395 18.8074 4.05394 19.4035 5.90211L20.9607 10.7307C21.2276 11.5584 21.9989 12.1187 22.8685 12.1168L27.942 12.1058C29.8839 12.1015 30.692 14.5884 29.1185 15.7264L25.0074 18.6995C24.3027 19.2092 24.0081 20.1158 24.2787 20.9423L25.857 25.7641C26.4611 27.6096 24.3457 29.1466 22.7771 28.0017L18.6791 25.0106C17.9766 24.4979 17.0234 24.4979 16.3209 25.0106L12.2229 28.0017C10.6543 29.1466 8.53888 27.6096 9.143 25.7641L10.7213 20.9423C10.9919 20.1158 10.6973 19.2092 9.99262 18.6995L5.88155 15.7264C4.30803 14.5884 5.11605 12.1015 7.05795 12.1058L12.1315 12.1168C13.0011 12.1187 13.7724 11.5584 14.0393 10.7307L15.5965 5.90211Z" fill="#E3F238" />
        <path d="M16.0724 6.05558C16.5194 4.66945 18.4806 4.66946 18.9276 6.05558L20.4848 10.8842C20.8185 11.9188 21.7825 12.6192 22.8696 12.6168L27.9431 12.6058C29.3996 12.6026 30.0056 14.4677 28.8254 15.3212L24.7144 18.2944C23.8335 18.9314 23.4653 20.0647 23.8035 21.0978L25.3818 25.9196C25.8349 27.3038 24.2483 28.4565 23.0719 27.5979L18.9739 24.6067C18.0958 23.9658 16.9042 23.9658 16.0261 24.6067L11.9281 27.5978C10.7517 28.4565 9.1651 27.3038 9.61819 25.9196L11.1965 21.0979C11.5347 20.0647 11.1665 18.9314 10.2856 18.2944L6.17456 15.3212C4.99442 14.4677 5.60044 12.6026 7.05686 12.6058L12.1304 12.6168C13.2175 12.6192 14.1815 11.9188 14.5152 10.8842L16.0724 6.05558Z" stroke="#575757" />
    </g>
    <g filter="url(#filter1_d)">
        <path d="M78.0724 6.05558C78.5194 4.66945 80.4806 4.66946 80.9276 6.05558L82.4848 10.8842C82.8185 11.9188 83.7825 12.6192 84.8696 12.6168L89.9431 12.6058C91.3996 12.6026 92.0056 14.4677 90.8254 15.3212L86.7144 18.2944C85.8335 18.9314 85.4653 20.0647 85.8035 21.0978L87.3818 25.9196C87.8349 27.3038 86.2483 28.4565 85.0719 27.5979L80.9739 24.6067C80.0958 23.9658 78.9042 23.9658 78.0261 24.6067L73.9281 27.5978C72.7517 28.4565 71.1651 27.3038 71.6182 25.9196L73.1965 21.0979C73.5347 20.0647 73.1665 18.9314 72.2856 18.2944L68.1746 15.3212C66.9944 14.4677 67.6004 12.6026 69.0569 12.6058L74.1304 12.6168C75.2175 12.6192 76.1815 11.9188 76.5152 10.8842L78.0724 6.05558Z" stroke="#575757" />
    </g>
    <g filter="url(#filter2_d)">
        <path d="M46.5965 5.90211C47.1926 4.05395 49.8074 4.05394 50.4035 5.90211L51.9607 10.7307C52.2276 11.5584 52.9989 12.1187 53.8685 12.1168L58.942 12.1058C60.8839 12.1015 61.692 14.5884 60.1185 15.7264L56.0074 18.6995C55.3027 19.2092 55.0081 20.1158 55.2787 20.9423L56.857 25.7641C57.4611 27.6096 55.3457 29.1466 53.7771 28.0017L49.6791 25.0106C48.9766 24.4979 48.0234 24.4979 47.3209 25.0106L43.2229 28.0017C41.6543 29.1466 39.5389 27.6096 40.143 25.7641L41.7213 20.9423C41.9919 20.1158 41.6973 19.2092 40.9926 18.6995L36.8816 15.7264C35.308 14.5884 36.1161 12.1015 38.058 12.1058L43.1315 12.1168C44.0011 12.1187 44.7724 11.5584 45.0393 10.7307L46.5965 5.90211Z" fill="#E3F238" />
        <path d="M49.9276 6.05558L51.4848 10.8842C51.8185 11.9188 52.7825 12.6192 53.8696 12.6168L58.9431 12.6058C60.3996 12.6026 61.0056 14.4677 59.8254 15.3212L55.7144 18.2944C54.8335 18.9314 54.4653 20.0647 54.8035 21.0978L56.3818 25.9196C56.8349 27.3038 55.2483 28.4565 54.0719 27.5979L49.9739 24.6067C49.0958 23.9658 47.9042 23.9658 47.0261 24.6067L42.9281 27.5979C41.7517 28.4565 40.1651 27.3038 40.6182 25.9196L42.1965 21.0978C42.5347 20.0647 42.1665 18.9314 41.2856 18.2944L37.1746 15.3212C35.9944 14.4677 36.6004 12.6026 38.0569 12.6058L43.1304 12.6168C44.2175 12.6192 45.1815 11.9188 45.5152 10.8842L47.0724 6.05558C47.5194 4.66945 49.4806 4.66946 49.9276 6.05558Z" stroke="#575757" />
    </g>
    <defs>
        <filter id="filter0_d" x="1.04971" y="4.51599" width="32.9006" height="31.8794" filterUnits="userSpaceOnUse" color-interpolation-filters="sRGB">
            <feFlood flood-opacity="0" result="BackgroundImageFix" />
            <feColorMatrix in="SourceAlpha" type="matrix" values="0 0 0 0 0 0 0 0 0 0 0 0 0 0 0 0 0 0 127 0" />
            <feOffset dy="4" />
            <feGaussianBlur stdDeviation="2" />
            <feColorMatrix type="matrix" values="0 0 0 0 0 0 0 0 0 0 0 0 0 0 0 0 0 0 0.25 0" />
            <feBlend mode="normal" in2="BackgroundImageFix" result="effect1_dropShadow" />
            <feBlend mode="normal" in="SourceGraphic" in2="effect1_dropShadow" result="shape" />
        </filter>
        <filter id="filter1_d" x="63.0497" y="4.51599" width="32.9006" height="31.8794" filterUnits="userSpaceOnUse" color-interpolation-filters="sRGB">
            <feFlood flood-opacity="0" result="BackgroundImageFix" />
            <feColorMatrix in="SourceAlpha" type="matrix" values="0 0 0 0 0 0 0 0 0 0 0 0 0 0 0 0 0 0 127 0" />
            <feOffset dy="4" />
            <feGaussianBlur stdDeviation="2" />
            <feColorMatrix type="matrix" values="0 0 0 0 0 0 0 0 0 0 0 0 0 0 0 0 0 0 0.25 0" />
            <feBlend mode="normal" in2="BackgroundImageFix" result="effect1_dropShadow" />
            <feBlend mode="normal" in="SourceGraphic" in2="effect1_dropShadow" result="shape" />
        </filter>
        <filter id="filter2_d" x="32.0497" y="4.51599" width="32.9006" height="31.8794" filterUnits="userSpaceOnUse" color-interpolation-filters="sRGB">
            <feFlood flood-opacity="0" result="BackgroundImageFix" />
            <feColorMatrix in="SourceAlpha" type="matrix" values="0 0 0 0 0 0 0 0 0 0 0 0 0 0 0 0 0 0 127 0" />
            <feOffset dy="4" />
            <feGaussianBlur stdDeviation="2" />
            <feColorMatrix type="matrix" values="0 0 0 0 0 0 0 0 0 0 0 0 0 0 0 0 0 0 0.25 0" />
            <feBlend mode="normal" in2="BackgroundImageFix" result="effect1_dropShadow" />
            <feBlend mode="normal" in="SourceGraphic" in2="effect1_dropShadow" result="shape" />
        </filter>
    </defs>
</svg>
