<?xml version="1.0" encoding="iso-8859-1"?>
<!-- Generator: Adobe Illustrator 19.0.0, SVG Export Plug-In . SVG Version: 6.00 Build 0)  -->
<svg version="1.1" id="Layer_1" xmlns="http://www.w3.org/2000/svg" xmlns:xlink="http://www.w3.org/1999/xlink" x="0px" y="0px"
	 viewBox="0 0 474.736 474.736" style="enable-background:new 0 0 474.736 474.736;" xml:space="preserve">
<g>
	<g>
		<circle style="fill:#CEAA80;" cx="180.894" cy="105.934" r="14.791"/>
		<circle style="fill:#CEAA80;" cx="293.84" cy="105.934" r="14.791"/>
	</g>
	<g>
		<path style="fill:#328DC6;" d="M216.787,69.051c-10.709-21.186-14.53-45.35-10.67-69.051c13.788,19.66,20.86,43.081,20.435,66.815
			L216.787,69.051z"/>
		<path style="fill:#DB3347;" d="M217.004,69.366c-18.564-14.794-32.109-35.168-38.478-58.321
			c20.727,12.125,36.917,30.467,46.422,52.219L217.004,69.366z"/>
	</g>
	<path style="fill:#FCCF92;" d="M298.242,110.969c0,17.31-7.23,30.52-18.83,39.27c-2.99,2.26-6.28,4.22-9.81,5.88
		c-6.9,3.24-14.72,5.32-23.11,6.18c-2.97,0.32-6.02,0.47-9.12,0.47c-3.1,0-6.15-0.16-9.13-0.47c-1.49-0.15-2.97-0.34-4.42-0.57
		c-6.72-1.07-13.02-2.94-18.69-5.61c-3.53-1.65-6.82-3.61-9.82-5.88c-11.6-8.75-18.82-21.96-18.82-39.27
		c0-11.39,3.13-23.44,8.57-34.39c2.71-5.46,5.99-10.64,9.76-15.33c0.85-1.08,1.74-2.13,2.65-3.15c10.69-12,24.65-20.11,39.9-20.11
		c16.56,0,31.58,9.55,42.54,23.26c3.76,4.69,7.05,9.87,9.76,15.33C295.112,87.529,298.242,99.579,298.242,110.969z"/>
	<path style="fill:#FFFFFF;" d="M249.324,117.862c0,9.697-5.352,17.558-11.954,17.558c-6.602,0-11.954-7.861-11.954-17.558H249.324z
		"/>
	<g>
		<path d="M217.019,102.545c0,0-0.303-0.04-0.778-0.17c-0.234-0.078-0.532-0.14-0.829-0.189c-0.299-0.06-0.603-0.132-0.969-0.186
			c-0.345-0.076-0.715-0.135-1.097-0.184c-0.368-0.082-0.776-0.08-1.158-0.155c-0.403-0.01-0.794-0.077-1.2-0.08
			c-0.401-0.033-0.808-0.022-1.213-0.038c-0.405,0.017-0.811,0.008-1.212,0.041c-0.406,0.007-0.797,0.069-1.199,0.082
			c-0.382,0.074-0.79,0.073-1.157,0.155c-0.382,0.048-0.752,0.107-1.097,0.183c-0.361,0.049-0.683,0.133-0.987,0.198
			c-0.309,0.06-0.594,0.111-0.817,0.178c-0.461,0.116-0.775,0.164-0.775,0.164s0.059-0.289,0.251-0.763
			c0.092-0.242,0.22-0.528,0.416-0.818c0.187-0.301,0.415-0.637,0.719-0.948c0.148-0.162,0.311-0.322,0.481-0.492
			c0.18-0.151,0.376-0.296,0.578-0.452c0.401-0.321,0.882-0.551,1.382-0.808c0.517-0.196,1.06-0.427,1.642-0.519
			c0.574-0.15,1.177-0.162,1.776-0.201c0.599,0.039,1.201,0.054,1.776,0.204c0.581,0.096,1.125,0.322,1.641,0.521
			c0.499,0.257,0.981,0.488,1.381,0.808c0.202,0.156,0.398,0.299,0.578,0.452c0.17,0.169,0.334,0.329,0.481,0.491
			c0.299,0.306,0.545,0.654,0.737,0.96c0.208,0.3,0.323,0.577,0.404,0.807C216.949,102.248,217.019,102.545,217.019,102.545z"/>
		<path d="M272.21,102.545c0,0-0.303-0.04-0.778-0.17c-0.234-0.078-0.532-0.14-0.829-0.189c-0.299-0.06-0.603-0.132-0.969-0.186
			c-0.345-0.076-0.715-0.135-1.097-0.184c-0.368-0.082-0.776-0.08-1.158-0.155c-0.403-0.01-0.794-0.077-1.2-0.08
			c-0.401-0.033-0.808-0.022-1.213-0.038c-0.405,0.017-0.811,0.008-1.212,0.041c-0.406,0.007-0.797,0.069-1.199,0.082
			c-0.382,0.074-0.79,0.073-1.157,0.155c-0.382,0.048-0.752,0.107-1.097,0.183c-0.361,0.049-0.683,0.133-0.987,0.198
			c-0.309,0.06-0.594,0.111-0.817,0.178c-0.461,0.116-0.775,0.164-0.775,0.164s0.059-0.289,0.251-0.763
			c0.092-0.242,0.22-0.528,0.416-0.818c0.187-0.301,0.415-0.637,0.719-0.948c0.148-0.162,0.311-0.322,0.481-0.492
			c0.18-0.151,0.376-0.296,0.578-0.452c0.401-0.321,0.882-0.551,1.382-0.808c0.517-0.196,1.06-0.427,1.642-0.519
			c0.574-0.15,1.177-0.162,1.776-0.201c0.599,0.039,1.201,0.054,1.776,0.204c0.581,0.096,1.125,0.322,1.641,0.521
			c0.499,0.257,0.981,0.488,1.381,0.808c0.202,0.156,0.398,0.299,0.578,0.452c0.17,0.169,0.334,0.329,0.481,0.491
			c0.299,0.306,0.545,0.654,0.737,0.96c0.208,0.3,0.323,0.577,0.404,0.807C272.14,102.248,272.21,102.545,272.21,102.545z"/>
	</g>
	<path style="fill:#FCCF92;" d="M339.572,272.779c0.13,8.6-0.8,16.97-2.67,24.97c-0.66,2.81-4.79,2.34-4.79-0.55v-0.22
		c0-37.28-21.54-63.97-52.85-76.23c0.34,5.23,0.77,12.43,1.18,21.16c0.11,2.32,0.22,4.75,0.32,7.28c0.17,4.2,0.34,8.67,0.48,13.39
		c0.07,2.24,0.13,4.53,0.19,6.87c0.06,2.54,0.12,5.14,0.17,7.8c0.02,1.18,0.04,2.37,0.06,3.58c0.04,2.75,0.08,5.57,0.11,8.42
		c0.03,3.1,0.04,6.26,0.05,9.47v0.01c0.06,47.95-2.82,106.5-14.41,150.94c-2.21,8.48-4.74,16.45-7.63,23.73
		c-0.8,2.03-3.79,1.66-4.08-0.51c-0.73-5.46-1.79-13.55-2.98-23.22c-3.7-29.78-8.76-74.58-9.77-104.07
		c-0.12-3.43-0.18-6.65-0.18-9.62h-10.39c0,28.49-5.82,80.45-9.95,113.69c-1.2,9.67-2.26,17.76-2.99,23.22
		c-0.28,2.17-3.27,2.54-4.07,0.51c-2.89-7.28-5.42-15.25-7.63-23.73c-12.37-47.41-14.82-110.88-14.36-160.42
		c0.01-1.22,0.02-2.43,0.04-3.64l0.05-3.36l0.02-1.42l0.05-3.08l0.01-0.5c0.1-5.1,0.22-10,0.37-14.67
		c0.23-7.55,0.5-14.49,0.79-20.67c0.41-8.82,0.84-16.09,1.19-21.33c-31.54,12.19-53.28,38.95-53.28,76.4v0.22
		c0.01,2.88-4.11,3.42-4.77,0.61c-1.76-7.52-2.7-15.36-2.7-23.42c0-43.47,27.15-80.62,65.42-95.38c4.42-1.72,8.99-3.12,13.69-4.2
		c0.82-0.2,1.65-0.38,2.48-0.55c5.71-1.17,10.18-5.62,11.37-11.32l0.13-0.64c2.98,0.31,6.03,0.47,9.13,0.47s6.15-0.15,9.12-0.47
		l0.16,0.76c1.18,5.66,5.59,10.08,11.25,11.3C303.192,184.109,338.842,225.319,339.572,272.779z"/>
	<path style="opacity:0.29;fill:#4D4D4D;enable-background:new    ;" d="M250.442,170.197c-4.07,1.53-8.47,2.36-13.07,2.36
		c-4.62,0-9.05-0.84-13.14-2.38c1.93-1.95,3.3-4.45,3.88-7.24l0.13-0.64c2.98,0.31,6.03,0.47,9.13,0.47s6.15-0.15,9.12-0.47
		l0.16,0.76C247.222,165.807,248.562,168.257,250.442,170.197z"/>
	<path style="fill:#4D4D4D;" d="M269.972,50.967c-0.43-0.37-0.87-0.73-1.31-1.08c-9.14-7.34-19.85-11.9-31.29-11.9
		c-11.43,0-22.14,4.56-31.29,11.89c-0.44,0.36-0.88,0.72-1.32,1.09c-2.57,2.18-5.01,4.57-7.29,7.13
		c-8.84,9.93-15.45,22.53-18.71,35.41c0.31,0.01,0.63,0.02,0.94,0.02c14.91,0,27-16.12,27-36c0-1.16-0.04-2.3-0.13-3.43
		c6.53,10.09,17.88,16.76,30.79,16.76c12.92,0,24.28-6.68,30.81-16.78c-0.09,1.13-0.13,2.29-0.13,3.45c0,19.88,12.08,36,27,36
		c0.31,0,0.62-0.01,0.93-0.02C291.862,77.297,282.462,61.537,269.972,50.967z"/>
	<path style="fill:#A67C52;" d="M289.672,76.579h-104.61c2.71-5.46,5.99-10.64,9.76-15.33h85.09
		C283.672,65.938,286.962,71.119,289.672,76.579z"/>
	<path style="fill:#DB3347;" d="M281.662,280.829h-88.17l0.05-3.08l0.01-0.5c0.1-5.1,0.22-10,0.37-14.67
		c0.23-7.55,0.5-14.49,0.79-20.67h85.73c0.11,2.32,0.22,4.75,0.32,7.28c0.17,4.2,0.34,8.67,0.48,13.39
		c0.07,2.24,0.13,4.53,0.19,6.87c0.06,2.54,0.12,5.14,0.17,7.8C281.622,278.429,281.642,279.619,281.662,280.829z"/>
	<path style="fill:#E87200;" d="M267.412,449.668h-14.69c-2.93-23.62-6.72-56.68-8.67-84.07c-0.79-11.16-1.28-21.38-1.28-29.62
		h-10.39c0,4.6-0.15,9.82-0.43,15.47c-1.41,29.32-6.06,70.35-9.52,98.22h-14.69c-10.99-42.12-14.15-96.93-14.39-143.37
		c-0.04-5.83,0.02-15.17,0.07-20.69l88.35,3.64C282.232,338.779,279.782,402.249,267.412,449.668z"/>
	<path style="opacity:0.29;fill:#4D4D4D;enable-background:new    ;" d="M260.282,384.579l-16.23-18.98
		c-0.79-11.16-1.28-21.38-1.28-29.62h-10.39c0,4.6-0.15,9.82-0.43,15.47l-38.6-45.15c-0.04-5.83,0.02-15.17,0.07-20.69l12.82,3.64
		l51.16,46.33L260.282,384.579z"/>
	<path style="fill:#875E39;" d="M281.822,298.719v0.01l-21.54,85.85l-66.86-98.97l0.05-3.36l0.07-4.5l0.01-0.5h88.05
		c0.07,3.89,0.13,7.9,0.17,12C281.802,292.349,281.812,295.509,281.822,298.719z"/>
	<path style="fill:#875E39;" d="M207.742,449.668h14.69c-1.2,9.67-2.26,17.76-2.99,23.22c-0.28,2.17-3.27,2.54-4.07,0.51
		C212.482,466.119,209.952,458.149,207.742,449.668z"/>
	<path style="fill:#875E39;" d="M267.412,449.668c-2.21,8.48-4.74,16.45-7.63,23.73c-0.8,2.03-3.79,1.66-4.08-0.51
		c-0.73-5.46-1.79-13.55-2.98-23.22H267.412z"/>
	<path style="fill:#875E39;" d="M281.432,269.449l-80.86-90.44c4.42-1.72,8.99-3.12,13.69-4.2l66.5,74.38
		c0.17,4.2,0.34,8.67,0.48,13.39C281.312,264.819,281.372,267.109,281.432,269.449z"/>
	<g>
		<path style="fill:#4D4D4D;" d="M201.552,160.279c1.41,1.22,2.24,3.08,2.06,5.08c-0.002,0.019-0.003,0.038-0.005,0.058
			c-0.251,2.563-2.529,4.452-5.104,4.452h-1.735c-2.556,0-4.826-1.862-5.096-4.403c-0.041-0.381-0.045-0.771-0.01-1.167
			c0.2-2.32,1.7-4.21,3.71-5.03c-1.65-1.43-2.46-3.71-1.91-5.98h0.01c0.3-1.23,0.96-2.27,1.84-3.05c3,2.27,6.29,4.23,9.82,5.88
			c-0.01,0.01-0.01,0.02-0.01,0.03C204.642,158.089,203.272,159.579,201.552,160.279z"/>
		<path style="fill:#4D4D4D;" d="M277.966,169.869h-1.735c-2.575,0-4.852-1.89-5.104-4.452c-0.002-0.019-0.004-0.038-0.005-0.058
			c-0.18-2,0.65-3.86,2.06-5.08c-1.72-0.7-3.09-2.19-3.57-4.13c0-0.01,0-0.02-0.01-0.03c3.53-1.66,6.82-3.62,9.81-5.88
			c0.89,0.77,1.55,1.82,1.85,3.05h0.01c0.55,2.27-0.26,4.55-1.91,5.98c2.01,0.82,3.51,2.71,3.71,5.03
			c0.035,0.396,0.03,0.786-0.01,1.167C282.791,168.007,280.521,169.869,277.966,169.869z"/>
	</g>
</g>
<g>
</g>
<g>
</g>
<g>
</g>
<g>
</g>
<g>
</g>
<g>
</g>
<g>
</g>
<g>
</g>
<g>
</g>
<g>
</g>
<g>
</g>
<g>
</g>
<g>
</g>
<g>
</g>
<g>
</g>
</svg>
